<svg width="40" height="40" viewBox="0 0 40 40" fill="none" xmlns="http://www.w3.org/2000/svg">
<rect width="40" height="40" fill="#FFD1AC"/>
<path d="M18.2252 7.01241C13.183 7.92747 9.11193 11.401 7.52458 16.163C6.96434 17.8437 6.83362 20.6636 7.22578 22.5124C8.25289 27.4052 12.3613 31.5323 17.3848 32.7088C18.8975 33.0636 21.9601 33.101 23.4914 32.7835C26.0125 32.2606 28.7577 30.804 30.2704 29.1419C31.9324 27.3492 33.3704 24.4359 33.2583 23.0913L33.2023 22.419H29.8595H26.4981L25.8818 23.4835C24.6866 25.5377 23.0993 26.4341 20.6902 26.4341C18.9535 26.4341 17.833 26.0233 16.6752 24.9961C13.0896 21.7654 14.042 15.6588 18.4493 13.754C19.4577 13.3245 21.3252 13.2871 22.5764 13.6979C24.0704 14.1648 24.9854 14.8745 25.6764 16.0883C25.9752 16.6299 26.33 17.1528 26.4607 17.2648C26.6288 17.4142 27.7866 17.4702 29.9529 17.4329L33.2023 17.3769L33.1836 16.4058C33.1276 14.7811 31.8764 12.5028 30.0276 10.654C28.3469 8.95458 26.7595 8.02084 24.5186 7.3859C22.9125 6.93771 19.7192 6.75096 18.2252 7.01241Z" fill="#2C2B31"/>
</svg>
